<?xml version="1.0" encoding="utf-8"?>
<svg xmlns="http://www.w3.org/2000/svg" style="margin: auto; background: none; display: block; shape-rendering: auto;" width="280" height="250" preserveAspectRatio="xMidYMid">
<style type="text/css">
  text {
    text-anchor: middle; font-size: 80px; opacity: 0;
  }
</style>
<g style="transform-origin:140px 125px;transform:scale(1)">
<g transform="translate(140,125)">
  <g transform="translate(0,0)"><g class="path" style="transform: scale(0.91); transform-origin: -79.175px -5.28812px; animation: 1s linear -0.528s infinite normal forwards running breath-40a07096-e4c1-446a-b173-fb1390c49179;"><path d="M39.77-15.78L39.77-15.78L39.77-15.78Q39.77-12.66 38.48-9.73L38.48-9.73L38.48-9.73Q37.19-6.80 34.84-4.57L34.84-4.57L34.84-4.57Q32.50-2.34 29.06-1.02L29.06-1.02L29.06-1.02Q25.63 0.31 21.25 0.31L21.25 0.31L21.25 0.31Q19.38 0.31 17.38 0.12L17.38 0.12L17.38 0.12Q15.39-0.08 13.36-0.55L13.36-0.55L13.36-0.55Q11.33-1.02 9.49-1.84L9.49-1.84L9.49-1.84Q7.66-2.66 6.33-3.83L6.33-3.83L7.97-10.55L7.97-10.55Q9.06-9.92 10.74-9.34L10.74-9.34L10.74-9.34Q12.42-8.75 14.22-8.24L14.22-8.24L14.22-8.24Q16.02-7.73 17.81-7.42L17.81-7.42L17.81-7.42Q19.61-7.11 21.17-7.11L21.17-7.11L21.17-7.11Q25.94-7.11 28.48-9.34L28.48-9.34L28.48-9.34Q31.02-11.56 31.02-15.94L31.02-15.94L31.02-15.94Q31.02-18.59 29.22-20.47L29.22-20.47L29.22-20.47Q27.42-22.34 24.73-23.87L24.73-23.87L24.73-23.87Q22.03-25.39 18.91-26.91L18.91-26.91L18.91-26.91Q15.78-28.44 13.05-30.51L13.05-30.51L13.05-30.51Q10.31-32.58 8.52-35.39L8.52-35.39L8.52-35.39Q6.72-38.20 6.72-42.42L6.72-42.42L6.72-42.42Q6.72-46.25 8.13-49.22L8.13-49.22L8.13-49.22Q9.53-52.19 11.91-54.26L11.91-54.26L11.91-54.26Q14.30-56.33 17.46-57.42L17.46-57.42L17.46-57.42Q20.63-58.52 24.14-58.52L24.14-58.52L24.14-58.52Q27.73-58.52 31.41-57.85L31.41-57.85L31.41-57.85Q35.08-57.19 37.34-55.70L37.34-55.70L37.34-55.70Q36.88-54.69 36.25-53.48L36.25-53.48L36.25-53.48Q35.63-52.27 35.08-51.21L35.08-51.21L35.08-51.21Q34.53-50.16 34.14-49.45L34.14-49.45L34.14-49.45Q33.75-48.75 33.67-48.67L33.67-48.67L33.67-48.67Q33.20-48.91 32.62-49.30L32.62-49.30L32.62-49.30Q32.03-49.69 30.94-50.08L30.94-50.08L30.94-50.08Q29.84-50.47 28.05-50.63L28.05-50.63L28.05-50.63Q26.25-50.78 23.44-50.55L23.44-50.55L23.44-50.55Q21.88-50.39 20.47-49.65L20.47-49.65L20.47-49.65Q19.06-48.91 17.97-47.81L17.97-47.81L17.97-47.81Q16.88-46.72 16.25-45.35L16.25-45.35L16.25-45.35Q15.63-43.98 15.63-42.73L15.63-42.73L15.63-42.73Q15.63-39.61 17.42-37.70L17.42-37.70L17.42-37.70Q19.22-35.78 21.88-34.34L21.88-34.34L21.88-34.34Q24.53-32.89 27.66-31.52L27.66-31.52L27.66-31.52Q30.78-30.16 33.48-28.20L33.48-28.20L33.48-28.20Q36.17-26.25 37.97-23.32L37.97-23.32L37.97-23.32Q39.77-20.39 39.77-15.78" fill="#8f8f8f" stroke="none" stroke-width="none" transform="translate(-102.22500610351562,23.816880081176755)" style="fill: rgb(143, 143, 143);"></path></g><g class="path" style="transform: scale(0.91); transform-origin: -43.705px -4.26812px; animation: 1s linear -0.396s infinite normal forwards running breath-40a07096-e4c1-446a-b173-fb1390c49179;"><path d="M61.64-37.66L61.64-13.36L61.64-13.36Q61.64-10.70 62.34-9.22L62.34-9.22L62.34-9.22Q63.05-7.73 64.34-6.95L64.34-6.95L64.34-6.95Q65.63-6.17 67.23-5.98L67.23-5.98L67.23-5.98Q68.83-5.78 70.63-5.78L70.63-5.78L70.63 0L70.63 0Q69.61 0.16 68.59 0.23L68.59 0.23L68.59 0.23Q67.73 0.31 66.52 0.35L66.52 0.35L66.52 0.35Q65.31 0.39 64.14 0.39L64.14 0.39L64.14 0.39Q62.97 0.39 61.76 0.31L61.76 0.31L61.76 0.31Q60.55 0.23 59.69 0.08L59.69 0.08L59.69 0.08Q57.03-0.39 55.55-2.23L55.55-2.23L55.55-2.23Q54.06-4.06 53.32-6.29L53.32-6.29L53.32-6.29Q52.58-8.52 52.38-10.63L52.38-10.63L52.38-10.63Q52.19-12.73 52.19-13.91L52.19-13.91L52.19-37.66L46.41-37.66L46.41-44.06L52.19-44.06L52.19-56.56L61.64-56.56L61.64-44.06L68.67-44.06L68.67-37.66L61.64-37.66" fill="#8f8f8f" stroke="none" stroke-width="none" transform="translate(-102.22500610351562,23.816880081176755)" style="fill: rgb(170, 170, 170);"></path></g><g class="path" style="transform: scale(0.91); transform-origin: -1.32501px 1.86188px; animation: 1s linear -0.264s infinite normal forwards running breath-40a07096-e4c1-446a-b173-fb1390c49179;"><path d="M101.33-44.30L101.33-44.30L101.33-44.30Q105.86-44.30 109.53-42.54L109.53-42.54L109.53-42.54Q113.20-40.78 115.78-37.73L115.78-37.73L115.78-37.73Q118.36-34.69 119.77-30.63L119.77-30.63L119.77-30.63Q121.17-26.56 121.17-21.88L121.17-21.88L121.17-21.88Q121.17-17.19 119.69-13.09L119.69-13.09L119.69-13.09Q118.20-8.98 115.51-5.98L115.51-5.98L115.51-5.98Q112.81-2.97 109.10-1.29L109.10-1.29L109.10-1.29Q105.39 0.39 100.86 0.39L100.86 0.39L100.86 0.39Q96.25 0.39 92.46-1.33L92.46-1.33L92.46-1.33Q88.67-3.05 86.05-6.09L86.05-6.09L86.05-6.09Q83.44-9.14 82.03-13.20L82.03-13.20L82.03-13.20Q80.63-17.27 80.63-22.03L80.63-22.03L80.63-22.03Q80.63-26.80 82.15-30.94L82.15-30.94L82.15-30.94Q83.67-35.08 86.37-38.01L86.37-38.01L86.37-38.01Q89.06-40.94 92.89-42.62L92.89-42.62L92.89-42.62Q96.72-44.30 101.33-44.30zM100.70-7.03L100.70-7.03L100.70-7.03Q103.05-7.03 104.96-8.16L104.96-8.16L104.96-8.16Q106.88-9.30 108.24-11.29L108.24-11.29L108.24-11.29Q109.61-13.28 110.43-16.02L110.43-16.02L110.43-16.02Q111.25-18.75 111.25-21.88L111.25-21.88L111.25-21.88Q111.25-25 110.51-27.73L110.51-27.73L110.51-27.73Q109.77-30.47 108.48-32.54L108.48-32.54L108.48-32.54Q107.19-34.61 105.31-35.86L105.31-35.86L105.31-35.86Q103.44-37.11 101.09-37.11L101.09-37.11L101.09-37.11Q98.75-37.11 96.80-35.94L96.80-35.94L96.80-35.94Q94.84-34.77 93.48-32.77L93.48-32.77L93.48-32.77Q92.11-30.78 91.37-28.09L91.37-28.09L91.37-28.09Q90.63-25.39 90.63-22.27L90.63-22.27L90.63-22.27Q90.63-19.14 91.29-16.37L91.29-16.37L91.29-16.37Q91.95-13.59 93.28-11.56L93.28-11.56L93.28-11.56Q94.61-9.53 96.45-8.28L96.45-8.28L96.45-8.28Q98.28-7.03 100.70-7.03" fill="#8f8f8f" stroke="none" stroke-width="none" transform="translate(-102.22500610351562,23.816880081176755)" style="fill: rgb(200, 200, 200);"></path></g><g class="path" style="transform: scale(0.91); transform-origin: 43.595px 1.62688px; animation: 1s linear -0.132s infinite normal forwards running breath-40a07096-e4c1-446a-b173-fb1390c49179;"><path d="M158.20-44.38L158.20-34.53L158.20-34.53Q156.02-35.16 152.89-35.23L152.89-35.23L152.89-35.23Q150.08-35.23 147.30-34.57L147.30-34.57L147.30-34.57Q144.53-33.91 142.89-32.34L142.89-32.34L142.89-15.63L142.89-15.47L142.89 0L133.44 0L133.44-44.06L141.88-44.06L142.89-39.53L142.89-39.53Q144.06-40.70 145.35-41.64L145.35-41.64L145.35-41.64Q146.64-42.58 148.36-43.16L148.36-43.16L148.36-43.16Q150.08-43.75 152.42-44.06L152.42-44.06L152.42-44.06Q154.77-44.38 158.20-44.38L158.20-44.38" fill="#8f8f8f" stroke="none" stroke-width="none" transform="translate(-102.22500610351562,23.816880081176755)" style="fill: rgb(143, 143, 143);"></path></g><g class="path" style="transform: scale(0.91); transform-origin: 86.915px 11.6319px; animation: 1s linear 0s infinite normal forwards running breath-40a07096-e4c1-446a-b173-fb1390c49179;"><path d="M201.25-44.06L210.78-44.06L210.78-44.06Q206.48-32.58 203.13-23.71L203.13-23.71L203.13-23.71Q199.77-14.84 197.27-8.16L197.27-8.16L197.27-8.16Q194.77-1.48 192.85 3.13L192.85 3.13L192.85 3.13Q190.94 7.73 189.34 10.82L189.34 10.82L189.34 10.82Q187.73 13.91 186.33 15.66L186.33 15.66L186.33 15.66Q184.92 17.42 183.44 18.36L183.44 18.36L183.44 18.36Q181.95 19.30 180.20 19.49L180.20 19.49L180.20 19.49Q178.44 19.69 176.17 19.69L176.17 19.69L176.17 19.69Q175.47 19.69 174.53 19.49L174.53 19.49L174.53 19.49Q173.59 19.30 172.70 19.02L172.70 19.02L172.70 19.02Q171.80 18.75 171.09 18.48L171.09 18.48L171.09 18.48Q170.39 18.20 170.16 18.13L170.16 18.13L170.16 18.13Q170.47 16.72 170.78 15.47L170.78 15.47L170.78 15.47Q171.02 14.38 171.29 13.40L171.29 13.40L171.29 13.40Q171.56 12.42 171.72 12.03L171.72 12.03L171.72 12.03Q172.34 12.03 173.63 12.42L173.63 12.42L173.63 12.42Q174.92 12.81 175.55 12.81L175.55 12.81L175.55 12.81Q176.80 12.81 177.77 12.70L177.77 12.70L177.77 12.70Q178.75 12.58 179.53 11.99L179.53 11.99L179.53 11.99Q180.31 11.41 181.02 10.27L181.02 10.27L181.02 10.27Q181.72 9.14 182.58 7.03L182.58 7.03L185.55 0L167.50-44.06L176.95-44.06L189.84-10.16L201.25-44.06" fill="#8f8f8f" stroke="none" stroke-width="none" transform="translate(-102.22500610351562,23.816880081176755)" style="fill: rgb(143, 143, 143);"></path></g></g>
</g>
</g>
<style id="breath-40a07096-e4c1-446a-b173-fb1390c49179" data-anikit="">@keyframes breath-40a07096-e4c1-446a-b173-fb1390c49179
{
  0% {
    animation-timing-function: cubic-bezier(0.9647,0.2413,-0.0705,0.7911);
    transform: scale(0.9099999999999999);
  }
  51% {
    animation-timing-function: cubic-bezier(0.9226,0.2631,-0.0308,0.7628);
    transform: scale(1.02994);
  }
  100% {
    transform: scale(0.9099999999999999);
  }
}</style></svg>